<svg width="16" height="16" viewBox="0 0 16 16" fill="none" xmlns="http://www.w3.org/2000/svg">
<g clip-path="url(#clip0_55_552)">
<g clip-path="url(#clip1_55_552)">
<g clip-path="url(#clip2_55_552)">
<path d="M1.79004 0C0.798263 0 0 0.798263 0 1.79004V14.21C0 15.2017 0.798263 16 1.79004 16H14.21C15.2017 16 16 15.2017 16 14.21V1.79004C16 0.798263 15.2017 0 14.21 0H1.79004ZM7.79395 1.125H8.20605C8.24067 3.91202 8.43076 5.47863 9.47607 6.52393C10.5214 7.56927 12.088 7.75931 14.875 7.79395V8.20605C12.088 8.24069 10.5214 8.43077 9.47607 9.47607C8.43076 10.5214 8.24068 12.088 8.20605 14.875H7.79395C7.75933 12.088 7.56924 10.5214 6.52393 9.47607C5.47861 8.43077 3.91204 8.24069 1.125 8.20605V7.79395C3.91204 7.75935 5.47861 7.56927 6.52393 6.52393C7.56924 5.47863 7.75932 3.91202 7.79395 1.125Z" fill="#B99F6E"/>
</g>
</g>
</g>
<defs>
<clipPath id="clip0_55_552">
<rect width="16" height="16" fill="white"/>
</clipPath>
<clipPath id="clip1_55_552">
<rect width="16" height="16" fill="white"/>
</clipPath>
<clipPath id="clip2_55_552">
<rect width="16" height="16" fill="white"/>
</clipPath>
</defs>
</svg>
