<svg width="69" height="98" viewBox="0 0 69 98" fill="none" xmlns="http://www.w3.org/2000/svg">
<g clip-path="url(#clip0_55_728)">
<g clip-path="url(#clip1_55_728)">
<path d="M9.35352 19.02L52.8651 1.98926L19.3227 22.8623L9.35352 19.02Z" fill="white"/>
<path d="M26.4883 21.6162L28.8767 20.1624C28.1498 20.5777 27.3191 21.097 26.4883 21.6162Z" fill="white"/>
<path d="M51.0996 31.5854C51.0996 31.6893 51.2035 31.6893 51.2035 31.7931C51.2035 31.7931 51.2035 31.6893 51.0996 31.5854Z" fill="white"/>
<path d="M25.1382 27.3278L26.3844 26.4971C24.2036 27.6394 22.2305 29.1971 20.6729 31.0663C21.919 29.7163 23.3729 28.4701 25.1382 27.3278Z" fill="white"/>
<path d="M2.18848 74.9932H8.73078C12.8846 74.9932 16 76.2393 16 79.9778C16 81.847 14.9616 83.7162 13.1962 84.3393V84.4432C15.4808 84.9624 17.1423 86.5201 17.1423 89.2201C17.1423 93.2701 13.8192 95.1393 9.25002 95.1393H2.18848V74.9932ZM8.41925 83.3009C11.2231 83.3009 12.4692 82.1585 12.4692 80.497C12.4692 78.5239 11.1192 77.797 8.52309 77.797H5.82309V83.3009H8.41925ZM8.83463 92.3355C11.8462 92.3355 13.5077 91.297 13.5077 89.0124C13.5077 86.9355 11.8462 86.0009 8.83463 86.0009H5.82309V92.3355H8.83463ZM20.8808 74.9932H33.2385V78.0047H24.5154V95.1393H20.8808V74.9932ZM40.9231 78.0047H35.0039V74.9932H50.3731V78.0047H44.4539V95.1393H40.8192V78.0047H40.9231ZM53.4885 95.1393L54.2154 92.0239C54.5269 92.1278 54.9423 92.2316 55.6692 92.2316C56.8116 92.2316 57.5385 91.8162 57.9539 90.9855L58.3692 90.1547L51.4116 75.097H55.15L58.2654 82.4701L59.9269 86.8316H60.0308L61.5885 82.4701L64.3923 75.097H68.0269L61.4846 91.0893C60.3423 93.7893 58.6808 95.4509 55.7731 95.4509C54.7346 95.4509 54.1116 95.347 53.4885 95.1393Z" fill="white"/>
<path d="M16.5189 46.5393C16.5189 46.3316 16.415 46.124 16.415 45.9163C16.5189 46.0201 16.5189 46.3316 16.5189 46.5393Z" fill="white"/>
<path d="M16.3115 43.1122C16.3115 44.0468 16.4154 44.8776 16.5192 45.7084C16.3115 44.7738 16.3115 43.943 16.3115 43.1122Z" fill="white"/>
<path d="M21.2959 33.2469V39.0622L49.2305 19.9545V14.1392L33.0305 25.2507L21.2959 33.2469Z" fill="white"/>
<path d="M49.2307 23.4854L44.4538 26.8085C47.2576 28.3662 49.4384 30.5469 51.0999 33.2469C50.9961 33.4546 50.8922 33.5585 50.7884 33.7662C49.9576 34.8046 49.2307 35.8431 48.3999 36.9854C48.2961 37.0892 48.2961 37.1931 48.2961 37.2969C48.6076 38.1277 49.023 38.9585 49.3345 39.7892C49.3345 39.8931 49.5422 39.9969 49.6461 39.9969C50.373 40.1008 51.0999 40.2046 51.8268 40.3085C52.4499 40.4123 53.073 40.5162 53.6961 40.62C53.7999 41.4508 53.9038 42.2816 53.9038 43.1123C53.9038 44.5662 53.6961 46.02 53.3845 47.37C52.3461 47.5777 51.3076 47.6816 50.2692 47.8892C50.1653 47.8892 50.1653 47.8892 50.1653 47.8892C50.1653 47.8892 50.1653 47.8892 50.0615 47.8892C49.3345 47.9931 49.2307 48.2008 49.2307 48.2008L48.9192 49.0316L48.2961 50.7969C48.1922 50.9008 48.1922 51.0046 48.2961 51.1085C49.023 52.0431 49.7499 52.9777 50.4768 53.9123C49.1268 55.8854 47.3615 57.5469 45.3884 58.7931L44.7653 58.3777L44.4538 58.17V26.8085L40.7153 29.4046L40.6115 61.0777C39.4692 61.3892 38.223 61.7008 36.9768 61.8046V31.7931L33.2384 34.3892L33.1345 61.7008C31.8884 61.5969 30.7461 61.2854 29.4999 60.9739V36.7777L25.7615 39.3739V59.3123C20.9845 56.6123 17.5576 51.8354 16.5192 46.3316C16.5192 46.1239 16.4153 45.9162 16.4153 45.7085C16.4153 45.6046 16.4153 45.6046 16.4153 45.5008C16.3115 44.67 16.2076 43.8392 16.2076 43.0085C16.2076 42.9046 16.2076 42.9046 16.2076 42.8008C16.2076 38.2316 17.973 34.0777 20.673 30.8585C22.2307 28.9892 24.2038 27.4316 26.3845 26.2892L37.0807 18.9162L49.2307 10.6085L52.9692 2.30078L26.2807 20.5777L21.8153 23.6931C18.4922 25.8739 16.1038 28.1585 14.3384 30.6508C12.1576 34.2854 10.8076 38.5431 10.8076 43.2162C10.8076 56.6123 21.6076 67.4123 35.0038 67.4123C48.3999 67.3085 59.3038 56.5085 59.3038 43.1123C59.3038 35.1162 55.3576 27.9508 49.2307 23.4854Z" fill="white"/>
</g>
</g>
<defs>
<clipPath id="clip0_55_728">
<rect width="65.8281" height="93.4408" fill="white" transform="translate(2.19336 1.99976)"/>
</clipPath>
<clipPath id="clip1_55_728">
<rect width="65.8385" height="93.4615" fill="white" transform="translate(2.18848 1.98926)"/>
</clipPath>
</defs>
</svg>
