<svg width="16" height="16" viewBox="0 0 16 16" fill="none" xmlns="http://www.w3.org/2000/svg">
<g clip-path="url(#clip0_55_482)">
<g clip-path="url(#clip1_55_482)">
<g clip-path="url(#clip2_55_482)">
<path d="M2.08097 0.0027174C1.93264 0.0221998 1.78017 0.00915968 1.63097 0.0193739C1.13907 0.0530501 0.595173 0.137652 0.294669 0.576126C0.0292547 0.963403 0.0231711 1.4805 0.0121267 1.93132C-0.00290835 2.54503 -0.000281632 3.16035 -0.000281632 3.77507V11.5251C-0.000281632 12.3749 -0.00866738 13.2263 0.0121267 14.0751C0.0238539 14.5538 0.0358437 15.0989 0.345788 15.4936C0.628156 15.8532 1.10869 15.94 1.53722 15.9694C2.34407 16.0246 3.15881 16.0001 3.96847 16.0001H11.031H13.2497C13.758 16.0001 14.2858 16.0233 14.7872 15.9347C15.0442 15.8893 15.3 15.814 15.5048 15.6448C15.8192 15.3849 15.9177 14.9809 15.957 14.5938C16.0209 13.9649 15.9997 13.3267 15.9997 12.6938V3.97507C15.9997 3.2276 16.0325 2.47017 15.9815 1.72507C15.9535 1.31602 15.9311 0.871109 15.6718 0.53023C15.4125 0.189183 14.9977 0.0866654 14.5935 0.0427306C13.817 -0.0416719 13.019 6.54302e-05 12.2372 6.54302e-05H5.41222H3.18722H2.45597C2.33352 6.54302e-05 2.20236 -0.0132265 2.08097 0.0027174ZM12.5185 12.7938H10.5372H10.0185C9.97191 12.7938 9.86034 12.8144 9.82191 12.7874C9.77516 12.7546 9.73284 12.6548 9.70166 12.6063C9.61278 12.4681 9.52334 12.3296 9.43078 12.1938C9.08609 11.6883 8.76272 11.1681 8.41966 10.6615C8.32441 10.5209 8.23441 10.3766 8.13841 10.2365C8.10816 10.1923 8.07716 10.1091 8.02966 10.0815C7.99566 10.0617 7.92572 10.0751 7.88722 10.0751H7.53722H6.23722V12.7688C6.04247 12.7933 5.8335 12.773 5.63722 12.773H4.46639H4.04139C4.01241 12.773 3.91796 12.7882 3.89987 12.765C3.87952 12.739 3.89347 12.6633 3.89347 12.6313V12.2751V10.8876V5.52507V4.00007V3.60632C3.89347 3.57333 3.87879 3.49299 3.89989 3.46633C3.91949 3.4416 4.00803 3.45631 4.03722 3.45631H4.44347H6.10597H7.12472C7.62216 3.45631 8.12378 3.43898 8.61847 3.48863C9.52078 3.5792 10.4838 3.91251 11.1052 4.60366C11.2569 4.77234 11.3993 4.95005 11.5083 5.15006C11.665 5.43723 11.7725 5.73676 11.8403 6.05631C12.0259 6.93125 11.8382 7.89463 11.3182 8.62406C11.1205 8.90131 10.8723 9.13894 10.5997 9.3415C10.5315 9.39213 10.4593 9.43781 10.3872 9.4825C10.3687 9.494 10.3159 9.51538 10.3193 9.54231C10.3226 9.56775 10.3532 9.5985 10.3676 9.61881C10.4041 9.67056 10.4383 9.72406 10.4744 9.77613C10.6051 9.96438 10.7335 10.1546 10.8611 10.3449C11.2433 10.9149 11.6295 11.4828 12.0173 12.049C12.1272 12.2095 12.2353 12.3714 12.3462 12.5313C12.4015 12.611 12.4873 12.7019 12.5185 12.7938ZM6.24972 7.98757H7.98097C8.39728 7.98757 8.83084 7.88969 9.15859 7.61856C9.64884 7.21306 9.72891 6.44425 9.28716 5.97155C8.78066 5.42963 8.00603 5.48757 7.33097 5.48757H6.52472H6.32472C6.30609 5.48757 6.26941 5.48086 6.25616 5.49758C6.23156 5.52863 6.24972 5.62992 6.24972 5.66882V6.14382L6.24972 7.98757Z" fill="#B99F6E"/>
</g>
</g>
</g>
<defs>
<clipPath id="clip0_55_482">
<rect width="16" height="16" fill="white"/>
</clipPath>
<clipPath id="clip1_55_482">
<rect width="16" height="16" fill="white"/>
</clipPath>
<clipPath id="clip2_55_482">
<rect width="16" height="16" fill="white"/>
</clipPath>
</defs>
</svg>
