<svg width="14" height="16" viewBox="0 0 14 16" fill="none" xmlns="http://www.w3.org/2000/svg">
<path d="M4 13C4 14.125 3.09375 15 2 15C0.875 15 0 14.125 0 13C0 11.9062 0.875 11 2 11C3.09375 11 4 11.9062 4 13ZM9.46875 14.5C9.5 14.7812 9.25 15 8.96875 15H7.46875C7.21875 15 7 14.8125 6.96875 14.5625C6.75 11.0625 3.9375 8.25 0.4375 8.03125C0.1875 8 0 7.78125 0 7.53125V6.03125C0 5.75 0.21875 5.5 0.5 5.53125C5.34375 5.78125 9.21875 9.65625 9.46875 14.5ZM13.9688 14.5C14 14.7812 13.7812 15 13.4688 15.0312H11.9688C11.7188 15.0312 11.5 14.8125 11.4688 14.5312C11.25 8.5625 6.4375 3.75 0.46875 3.53125C0.1875 3.5 0 3.28125 0 3.03125V1.53125C0 1.21875 0.21875 1 0.5 1.03125C7.84375 1.28125 13.7188 7.1875 13.9688 14.5Z" fill="#B99F6E"/>
</svg>
