<svg width="11" height="17" viewBox="0 0 11 17" fill="none" xmlns="http://www.w3.org/2000/svg">
<path d="M8.65625 10.4375C7.78125 11 6.625 11.2188 5.84375 11.2812L6.5 11.9375L8.875 14.3125C9.75 15.2188 8.3125 16.625 7.4375 15.75C6.84375 15.1562 5.96875 14.2812 5.0625 13.3438L2.6875 15.75C1.78125 16.5938 0.375 15.1875 1.25 14.3125C1.875 13.7188 2.71875 12.8438 3.625 11.9375L4.28125 11.2812C3.5 11.2188 2.3125 11 1.4375 10.4375C0.4375 9.78125 0 9.40625 0.375 8.59375C0.625 8.15625 1.25 7.75 2.09375 8.4375C2.09375 8.4375 3.21875 9.34375 5.0625 9.34375C6.875 9.34375 8.03125 8.4375 8.03125 8.4375C8.84375 7.78125 9.5 8.15625 9.71875 8.59375C10.125 9.40625 9.65625 9.78125 8.65625 10.4375ZM1 4.0625C1 1.8125 2.8125 0 5.0625 0C7.28125 0 9.09375 1.8125 9.09375 4.0625C9.09375 6.3125 7.28125 8.125 5.0625 8.125C2.8125 8.125 1 6.3125 1 4.0625ZM3.0625 4.0625C3.0625 5.15625 3.9375 6.0625 5.0625 6.0625C6.15625 6.0625 7.03125 5.15625 7.03125 4.0625C7.03125 2.96875 6.15625 2.0625 5.0625 2.0625C3.9375 2.0625 3.0625 2.96875 3.0625 4.0625Z" fill="#B99F6E"/>
</svg>
