<svg width="24" height="24" viewBox="0 0 24 24" fill="none" xmlns="http://www.w3.org/2000/svg">
<path d="M14.9902 2.92993C13.7222 2.92993 12.5402 3.76195 12.1712 4.93195L3.99023 4.92993C3.43823 4.92993 2.99023 5.37793 2.99023 5.92993C2.99023 6.48193 3.43823 6.92993 3.99023 6.92993L12.1712 6.92896C12.6192 8.15396 13.7222 8.92993 14.9902 8.92993C16.2582 8.92993 17.3722 8.15196 17.8282 6.92096L19.9902 6.92993C20.5422 6.92993 20.9902 6.48193 20.9902 5.92993C20.9902 5.37793 20.5422 4.92993 19.9902 4.92993H17.8202C17.3382 3.71093 16.2582 2.92993 14.9902 2.92993ZM8.99023 8.92993C7.67223 8.92993 6.56923 9.74995 6.16623 10.9319C6.02523 10.9409 3.99023 10.9299 3.99023 10.9299C3.43823 10.9299 2.99023 11.3779 2.99023 11.9299C2.99023 12.4819 3.43823 12.9299 3.99023 12.9299C3.99023 12.9299 6.04223 12.9089 6.17023 12.9219C6.57323 14.1039 7.67223 14.9299 8.99023 14.9299C10.2582 14.9299 11.3442 14.1529 11.8192 12.9329L19.9902 12.9299C20.5422 12.9299 20.9902 12.4819 20.9902 11.9299C20.9902 11.3779 20.5422 10.9299 19.9902 10.9299L11.8142 10.921C11.3762 9.72796 10.2582 8.92993 8.99023 8.92993ZM14.9902 14.9299C13.7222 14.9299 12.5622 15.7649 12.1702 16.9199L3.99023 16.9299C3.43823 16.9299 2.99023 17.3779 2.99023 17.9299C2.99023 18.4819 3.43823 18.9299 3.99023 18.9299L12.1562 18.9309C12.5702 20.1159 13.7222 20.9299 14.9902 20.9299C16.2582 20.9299 17.3512 20.1369 17.8322 18.9309L19.9902 18.9299C20.5422 18.9299 20.9902 18.4819 20.9902 17.9299C20.9902 17.3779 20.5422 16.9299 19.9902 16.9299L17.8232 16.924C17.3922 15.741 16.2582 14.9299 14.9902 14.9299Z" fill="#2A343D"/>
</svg>
