<svg width="64" height="90" viewBox="0 0 64 90" fill="none" xmlns="http://www.w3.org/2000/svg">
<g clip-path="url(#clip0_55_590)">
<g clip-path="url(#clip1_55_590)">
<path d="M6.89453 16.39L48.7945 -0.0100098L16.4945 20.09L6.89453 16.39Z" fill="#D1AF69"/>
<path d="M23.3945 18.89L25.6945 17.49C24.9945 17.89 24.1945 18.39 23.3945 18.89Z" fill="#1E2345"/>
<path d="M47.0938 28.49C47.0938 28.59 47.1938 28.59 47.1938 28.69C47.1938 28.69 47.1938 28.59 47.0938 28.49Z" fill="#192542"/>
<path d="M22.0949 24.3901L23.2949 23.5901C21.1949 24.6901 19.2949 26.1901 17.7949 27.9901C18.9949 26.6901 20.3949 25.4901 22.0949 24.3901Z" fill="#192542"/>
<path d="M-0.00585938 70.29H6.29414C10.2941 70.29 13.2941 71.49 13.2941 75.09C13.2941 76.89 12.2941 78.69 10.5941 79.29V79.39C12.7941 79.89 14.3941 81.39 14.3941 83.99C14.3941 87.89 11.1941 89.69 6.79414 89.69H-0.00585938V70.29ZM5.99414 78.29C8.69414 78.29 9.89414 77.19 9.89414 75.59C9.89414 73.69 8.59414 72.99 6.09414 72.99H3.49414V78.29H5.99414ZM6.39414 86.99C9.29414 86.99 10.8941 85.99 10.8941 83.79C10.8941 81.79 9.29414 80.89 6.39414 80.89H3.49414V86.99H6.39414ZM17.9941 70.29H29.8941V73.19H21.4941V89.69H17.9941V70.29ZM37.2941 73.19H31.5941V70.29H46.3941V73.19H40.6941V89.69H37.1941V73.19H37.2941ZM49.3941 89.69L50.0941 86.69C50.3941 86.79 50.7941 86.89 51.4941 86.89C52.5941 86.89 53.2941 86.49 53.6941 85.69L54.0941 84.89L47.3941 70.39H50.9941L53.9941 77.49L55.5941 81.69H55.6941L57.1941 77.49L59.8941 70.39H63.3941L57.0941 85.79C55.9941 88.39 54.3941 89.99 51.5941 89.99C50.5941 89.99 49.9941 89.89 49.3941 89.69Z" fill="#192542"/>
<path d="M13.7934 42.89C13.7934 42.69 13.6934 42.49 13.6934 42.29C13.7934 42.39 13.7934 42.69 13.7934 42.89Z" fill="#192542"/>
<path d="M13.5938 39.5901C13.5938 40.4901 13.6937 41.2901 13.7937 42.0901C13.5937 41.1901 13.5938 40.3901 13.5938 39.5901Z" fill="#192542"/>
<path d="M18.3945 30.0899V35.6899L45.2945 17.2899V11.6899L29.6945 22.3899L18.3945 30.0899Z" fill="#192542"/>
<path d="M45.2949 20.69L40.6949 23.89C43.3949 25.39 45.4949 27.49 47.0949 30.09C46.9949 30.29 46.8949 30.39 46.7949 30.59C45.9949 31.59 45.2949 32.59 44.4949 33.69C44.3949 33.79 44.3949 33.89 44.3949 33.99C44.6949 34.79 45.0949 35.59 45.3949 36.39C45.3949 36.49 45.5949 36.59 45.6949 36.59C46.3949 36.69 47.0949 36.79 47.7949 36.89C48.3949 36.99 48.9949 37.09 49.5949 37.19C49.6949 37.99 49.7949 38.79 49.7949 39.59C49.7949 40.99 49.5949 42.39 49.2949 43.69C48.2949 43.89 47.2949 43.99 46.2949 44.19C46.1949 44.19 46.1949 44.19 46.1949 44.19C46.1949 44.19 46.1949 44.19 46.0949 44.19C45.3949 44.29 45.2949 44.49 45.2949 44.49L44.9949 45.29L44.3949 46.99C44.2949 47.09 44.2949 47.19 44.3949 47.29C45.0949 48.19 45.7949 49.09 46.4949 49.99C45.1949 51.89 43.4949 53.49 41.5949 54.69L40.9949 54.29L40.6949 54.09V23.89L37.0949 26.39L36.9949 56.89C35.8949 57.19 34.6949 57.49 33.4949 57.59V28.69L29.8949 31.19L29.7949 57.49C28.5949 57.39 27.4949 57.09 26.2949 56.79V33.49L22.6949 35.99V55.19C18.0949 52.59 14.7949 47.99 13.7949 42.69C13.7949 42.49 13.6949 42.29 13.6949 42.09C13.6949 41.99 13.6949 41.99 13.6949 41.89C13.5949 41.09 13.4949 40.29 13.4949 39.49C13.4949 39.39 13.4949 39.39 13.4949 39.29C13.4949 34.89 15.1949 30.89 17.7949 27.79C19.2949 25.99 21.1949 24.49 23.2949 23.39L33.5949 16.29L45.2949 8.29004L48.8949 0.290039L23.1949 17.89L18.8949 20.89C15.6949 22.99 13.3949 25.19 11.6949 27.59C9.59492 31.09 8.29492 35.19 8.29492 39.69C8.29492 52.59 18.6949 62.99 31.5949 62.99C44.4949 62.89 54.9949 52.49 54.9949 39.59C54.9949 31.89 51.1949 24.99 45.2949 20.69Z" fill="#192542"/>
</g>
</g>
<defs>
<clipPath id="clip0_55_590">
<rect width="63.39" height="89.98" fill="white"/>
</clipPath>
<clipPath id="clip1_55_590">
<rect width="63.4" height="90" fill="white" transform="translate(-0.00585938 -0.0100098)"/>
</clipPath>
</defs>
</svg>
